<?xml version="1.0" encoding="utf-8"?>
<!-- Generator: Adobe Illustrator 16.0.0, SVG Export Plug-In . SVG Version: 6.00 Build 0)  -->
<!DOCTYPE svg PUBLIC "-//W3C//DTD SVG 1.1//EN" "http://www.w3.org/Graphics/SVG/1.1/DTD/svg11.dtd">
<svg version="1.1" id="Layer_1" xmlns="http://www.w3.org/2000/svg" xmlns:xlink="http://www.w3.org/1999/xlink" x="0px" y="0px"
	 width="577px" height="119px" viewBox="0 0 577 119" enable-background="new 0 0 577 119" xml:space="preserve">
<g>
	<defs>
		<rect id="SVGID_1_" width="577" height="119"/>
	</defs>
	<clipPath id="SVGID_2_">
		<use xlink:href="#SVGID_1_"  overflow="visible"/>
	</clipPath>
	<path clip-path="url(#SVGID_2_)" fill-rule="evenodd" clip-rule="evenodd" fill="#00ADE6" d="M96,108.003H19.011
		c-5.5,0-10-4.5-10-10V21.015c0-5.5,4.5-10,10-10H96c5.5,0,10,4.5,10,10v76.988C106,103.503,101.5,108.003,96,108.003"/>
</g>
<g>
	<defs>
		<rect id="SVGID_3_" width="577" height="119"/>
	</defs>
	<clipPath id="SVGID_4_">
		<use xlink:href="#SVGID_3_"  overflow="visible"/>
	</clipPath>
	<path clip-path="url(#SVGID_4_)" fill="#FFFFFF" d="M30.444,35.558H21.31c-1.575,0-1.785,0.524-1.051,2.204l16.59,50.083
		c0.525,1.575,1.155,2.311,1.785,2.311H40c0.735,0,1.26-0.735,2.1-2.311l3.99-8.714L33.174,37.448
		C32.649,35.978,31.914,35.558,30.444,35.558"/>
	<path clip-path="url(#SVGID_4_)" fill="#FFFFFF" d="M58.269,34.087h-0.735c-1.05,0-1.47,1.05-2.1,2.205L44.1,61.013l4.053,13.348
		l9.801-22.319l16.484,35.804c0.735,1.575,1.365,2.311,2.1,2.311h0.735c0.63,0,1.26-0.735,1.785-2.311l2.73-7.874L60.369,36.292
		C59.634,35.032,59.318,34.087,58.269,34.087"/>
	<path clip-path="url(#SVGID_4_)" fill="#FFFFFF" d="M94.492,35.558h-9.03c-1.68,0-2.31,0.524-2.94,2.204l-6.871,22.163v-0.001
		l7.597,15.42l12.294-37.582C96.277,36.082,96.066,35.558,94.492,35.558"/>
</g>
<g>
	<defs>
		<rect id="SVGID_5_" width="577" height="119"/>
	</defs>
	<clipPath id="SVGID_6_">
		<use xlink:href="#SVGID_5_"  overflow="visible"/>
	</clipPath>
	<path clip-path="url(#SVGID_6_)" d="M136.11,89.314c-1.046-0.785-1.764-1.765-2.156-2.94l-13.916-40.768
		c-0.196-0.588-0.294-1.143-0.294-1.667c0-1.24,0.424-2.286,1.274-3.135c0.848-0.849,1.894-1.275,3.136-1.275
		c0.914,0,1.748,0.245,2.499,0.736c0.75,0.489,1.257,1.127,1.519,1.91l11.466,37.731l11.368-36.848
		c0.326-1.045,0.931-1.894,1.813-2.549c0.882-0.652,1.877-0.98,2.989-0.98c1.11,0,2.107,0.328,2.989,0.98
		c0.882,0.655,1.485,1.504,1.813,2.549l11.368,36.848l11.466-37.731c0.26-0.783,0.767-1.421,1.519-1.91
		c0.751-0.491,1.584-0.736,2.499-0.736c1.24,0,2.286,0.426,3.136,1.275c0.848,0.849,1.274,1.895,1.274,3.135
		c0,0.524-0.098,1.079-0.294,1.667l-13.916,40.768c-0.392,1.176-1.112,2.155-2.156,2.94c-1.046,0.783-2.222,1.176-3.528,1.176
		c-1.307,0-2.484-0.393-3.528-1.176c-1.046-0.785-1.798-1.797-2.254-3.039l-10.388-32.438L145.42,86.275
		c-0.458,1.242-1.209,2.254-2.254,3.039c-1.046,0.783-2.222,1.176-3.528,1.176C138.33,90.49,137.154,90.098,136.11,89.314"/>
	<path clip-path="url(#SVGID_6_)" d="M210.492,87.746c-3.79-2.156-6.713-5.209-8.771-9.163c-2.058-3.952-3.087-8.478-3.087-13.573
		c0-5.095,1.029-9.619,3.087-13.572c2.058-3.953,4.981-7.007,8.771-9.163c3.788-2.156,8.198-3.234,13.23-3.234
		c4.964,0,9.342,1.078,13.131,3.234c3.79,2.156,6.729,5.21,8.821,9.163c2.09,3.953,3.137,8.477,3.137,13.572
		c0,5.096-1.047,9.621-3.137,13.573c-2.092,3.954-5.031,7.007-8.821,9.163c-3.789,2.156-8.167,3.234-13.131,3.234
		C218.69,90.98,214.28,89.902,210.492,87.746 M231.415,80.984c2.45-1.24,4.474-3.201,6.075-5.881
		c1.602-2.678,2.403-6.076,2.403-10.191c0-4.051-0.801-7.415-2.403-10.095c-1.601-2.678-3.625-4.621-6.075-5.831
		c-2.45-1.208-5.015-1.813-7.693-1.813c-2.744,0-5.341,0.605-7.791,1.813c-2.45,1.21-4.459,3.153-6.027,5.831
		c-1.568,2.68-2.352,6.044-2.352,10.095c0,4.115,0.784,7.514,2.352,10.191c1.568,2.68,3.577,4.641,6.027,5.881
		c2.45,1.242,5.047,1.861,7.791,1.861C226.4,82.846,228.965,82.227,231.415,80.984"/>
	<path clip-path="url(#SVGID_6_)" d="M262.528,89.216c-0.85-0.849-1.273-1.894-1.273-3.136V44.038c0-1.24,0.423-2.303,1.273-3.185
		c0.849-0.882,1.895-1.323,3.137-1.323c1.24,0,2.302,0.441,3.184,1.323c0.882,0.882,1.324,1.945,1.324,3.185v4.214
		c4.572-6.14,9.702-9.212,15.385-9.212h0.491c1.24,0,2.269,0.426,3.086,1.274c0.816,0.85,1.225,1.896,1.225,3.136
		c0,1.242-0.426,2.254-1.273,3.038c-0.85,0.784-1.928,1.176-3.235,1.176h-0.49c-3.136,0-6.012,0.769-8.624,2.303
		c-2.613,1.536-4.802,3.643-6.565,6.321V86.08c0,1.242-0.442,2.287-1.324,3.136c-0.882,0.849-1.944,1.274-3.184,1.274
		C264.423,90.49,263.377,90.064,262.528,89.216"/>
	<path clip-path="url(#SVGID_6_)" d="M300.062,89.216c-0.85-0.849-1.273-1.894-1.273-3.136V22.478c0-1.24,0.424-2.303,1.273-3.185
		c0.849-0.882,1.895-1.323,3.137-1.323c1.24,0,2.303,0.441,3.185,1.323c0.882,0.882,1.323,1.945,1.323,3.185v40.083L331.031,41
		c0.979-0.848,1.96-1.274,2.939-1.274c1.502,0,2.598,0.426,3.283,1.274c0.686,0.85,1.029,1.862,1.029,3.038
		c0,1.112-0.557,2.222-1.666,3.332l-14.112,12.642l17.738,23.521c0.652,0.85,0.979,1.731,0.979,2.646
		c0,1.309-0.426,2.351-1.273,3.137c-0.851,0.783-1.928,1.176-3.234,1.176c-0.654,0-1.308-0.164-1.96-0.49
		c-0.654-0.326-1.21-0.784-1.666-1.372l-16.856-22.934l-8.525,7.743V86.08c0,1.242-0.441,2.287-1.323,3.136
		s-1.944,1.274-3.185,1.274C301.957,90.49,300.911,90.064,300.062,89.216"/>
	<path clip-path="url(#SVGID_6_)" d="M350.044,86.57c-1.112-0.784-1.666-1.862-1.666-3.234c0-1.045,0.358-1.96,1.078-2.745
		c0.718-0.782,1.632-1.175,2.744-1.175c0.588,0,1.176,0.132,1.764,0.393c2.09,0.915,4.181,1.633,6.271,2.155
		c2.091,0.524,4.442,0.784,7.057,0.784c7.252,0,10.878-2.318,10.878-6.958c0-1.502-0.833-2.646-2.499-3.431
		c-1.666-0.783-4.395-1.666-8.184-2.646c-3.855-0.915-7.04-1.862-9.555-2.842c-2.516-0.979-4.672-2.466-6.468-4.459
		c-1.798-1.992-2.695-4.622-2.695-7.889c0-4.573,1.649-8.297,4.949-11.172c3.298-2.874,8.02-4.312,14.161-4.312
		c5.03,0,9.767,0.818,14.21,2.45c0.914,0.262,1.617,0.751,2.106,1.47c0.49,0.719,0.735,1.47,0.735,2.254
		c0,1.045-0.377,1.96-1.127,2.744c-0.752,0.784-1.683,1.175-2.793,1.175c-0.327,0-0.752-0.063-1.274-0.195
		c-3.789-1.176-7.514-1.764-11.173-1.764c-3.526,0-6.287,0.637-8.279,1.911c-1.994,1.274-2.989,2.924-2.989,4.949
		c0,1.96,0.914,3.397,2.744,4.312c1.828,0.915,4.67,1.797,8.524,2.646c3.855,0.98,6.991,1.944,9.409,2.891
		c2.416,0.948,4.491,2.436,6.223,4.458c1.73,2.026,2.598,4.739,2.598,8.136c0,4.182-1.65,7.644-4.949,10.387
		c-3.3,2.744-7.955,4.117-13.965,4.117C361.346,90.98,355.4,89.51,350.044,86.57"/>
	<path clip-path="url(#SVGID_6_)" d="M406.441,88.432c-2.646-1.697-4.672-4.018-6.075-6.957c-1.406-2.94-2.107-6.175-2.107-9.703
		V43.939c0-1.24,0.441-2.286,1.323-3.135c0.881-0.849,1.943-1.275,3.185-1.275c1.24,0,2.286,0.426,3.137,1.275
		c0.848,0.849,1.273,1.895,1.273,3.135v26.853c0,7.972,3.593,11.956,10.78,11.956c3.266,0,6.189-0.848,8.771-2.548
		c2.58-1.698,5.014-3.984,7.302-6.86v-29.4c0-1.24,0.44-2.286,1.322-3.135s1.943-1.275,3.186-1.275c1.24,0,2.286,0.426,3.136,1.275
		c0.849,0.849,1.274,1.895,1.274,3.135v42.043c0,1.241-0.426,2.303-1.274,3.185c-0.85,0.882-1.896,1.323-3.136,1.323
		c-1.242,0-2.304-0.441-3.186-1.323s-1.322-1.943-1.322-3.185v-4.019c-2.484,2.744-5.162,4.934-8.036,6.565
		c-2.876,1.632-6.272,2.451-10.192,2.451C412.207,90.98,409.088,90.131,406.441,88.432"/>
	<path clip-path="url(#SVGID_6_)" d="M459.116,28.358c-0.979-0.98-1.47-2.156-1.47-3.528v-0.392c0-1.372,0.49-2.548,1.47-3.528
		c0.98-0.98,2.156-1.47,3.528-1.47h0.588c1.372,0,2.548,0.49,3.528,1.47c0.979,0.98,1.47,2.156,1.47,3.528v0.392
		c0,1.372-0.49,2.548-1.47,3.528c-0.98,0.98-2.156,1.47-3.528,1.47h-0.588C461.272,29.828,460.097,29.338,459.116,28.358
		 M459.704,89.216c-0.85-0.849-1.273-1.894-1.273-3.136V44.038c0-1.24,0.424-2.303,1.273-3.185c0.849-0.882,1.895-1.323,3.137-1.323
		c1.306,0,2.384,0.426,3.233,1.274c0.849,0.85,1.274,1.928,1.274,3.234V86.08c0,1.242-0.441,2.287-1.323,3.136
		s-1.944,1.274-3.185,1.274C461.599,90.49,460.553,90.064,459.704,89.216"/>
	<path clip-path="url(#SVGID_6_)" d="M485.771,78.044v-30.38h-6.958c-0.523,0-0.964-0.179-1.322-0.539
		c-0.36-0.358-0.539-0.799-0.539-1.323c0-0.652,0.294-1.208,0.883-1.666l13.327-13.034c0.588-0.588,1.142-0.882,1.666-0.882
		c0.521,0,0.963,0.196,1.322,0.588c0.358,0.392,0.539,0.85,0.539,1.372v7.84h11.074c1.111,0,2.024,0.36,2.744,1.078
		c0.718,0.72,1.078,1.634,1.078,2.744c0,1.046-0.36,1.945-1.078,2.695c-0.72,0.752-1.633,1.127-2.744,1.127h-11.074V77.26
		c0,2.549,0.604,4.165,1.813,4.852c1.208,0.686,2.728,1.029,4.557,1.029c1.307,0,2.612-0.197,3.92-0.589
		c0.261-0.063,0.539-0.13,0.833-0.196c0.294-0.064,0.67-0.098,1.127-0.098c0.914,0,1.73,0.344,2.45,1.029
		c0.719,0.686,1.078,1.52,1.078,2.499c0,1.503-0.752,2.646-2.254,3.43c-2.548,1.177-5.26,1.765-8.134,1.765
		C490.54,90.98,485.771,86.668,485.771,78.044"/>
	<path clip-path="url(#SVGID_6_)" d="M523.257,84.169c-4.476-4.54-6.713-10.927-6.713-19.159c0-4.638,0.849-8.918,2.548-12.838
		c1.698-3.92,4.312-7.088,7.84-9.506c3.528-2.417,7.872-3.626,13.034-3.626c4.834,0,9.016,1.127,12.544,3.381
		s6.206,5.26,8.036,9.016c1.828,3.758,2.744,7.857,2.744,12.299c0,1.241-0.409,2.287-1.226,3.136
		c-0.817,0.85-1.91,1.274-3.283,1.274H525.56c0.522,4.573,2.221,8.133,5.097,10.682c2.874,2.548,6.892,3.822,12.054,3.822
		c2.744,0,5.145-0.261,7.203-0.784c2.058-0.522,4.066-1.274,6.026-2.255c0.522-0.26,1.11-0.391,1.765-0.391
		c1.044,0,1.96,0.359,2.744,1.077c0.783,0.72,1.176,1.634,1.176,2.744c0,1.438-0.85,2.645-2.548,3.626
		c-2.548,1.438-5.064,2.516-7.546,3.234c-2.484,0.718-5.685,1.078-9.604,1.078C533.954,90.98,527.731,88.711,523.257,84.169
		 M554.47,60.894c-0.196-3.2-1.029-5.879-2.499-8.036c-1.47-2.156-3.283-3.739-5.438-4.753c-2.157-1.012-4.347-1.519-6.567-1.519
		c-2.222,0-4.41,0.507-6.566,1.519c-2.155,1.014-3.953,2.597-5.39,4.753c-1.438,2.156-2.254,4.836-2.45,8.036H554.47z"/>
</g>
</svg>
